<svg width="52" height="59" viewBox="0 0 52 59" fill="none" xmlns="http://www.w3.org/2000/svg">
<path fill-rule="evenodd" clip-rule="evenodd" d="M0 8.88119C0 4.46291 3.58172 0.881195 8 0.881195H44C48.4183 0.881195 52 4.46292 52 8.8812V50.0297C52 54.448 48.4183 58.0297 44 58.0297H43V25.9604V11.6733C43 10.5687 42.1046 9.67328 41 9.67328H11C9.89543 9.67328 9 10.5687 9 11.6733V25.9604V58.0297H8C3.58172 58.0297 0 54.448 0 50.0297V8.88119ZM41 11.6733V23.9604H11V11.6733H41ZM11 58.0297V25.9604H41V58.0297H11ZM21.9121 18.0947H19.0996V21H17.6348V13.8906H22.2637V15.0771H19.0996V16.9131H21.9121V18.0947ZM24.5781 18.4951V21H23.1133V13.8906H25.8867C26.4206 13.8906 26.8893 13.9883 27.293 14.1836C27.6999 14.3789 28.0124 14.6572 28.2305 15.0186C28.4486 15.3766 28.5576 15.7852 28.5576 16.2441C28.5576 16.9408 28.3184 17.4909 27.8398 17.8945C27.3646 18.2949 26.7054 18.4951 25.8623 18.4951H24.5781ZM24.5781 17.3086H25.8867C26.2741 17.3086 26.5687 17.2174 26.7705 17.0352C26.9756 16.8529 27.0781 16.5924 27.0781 16.2539C27.0781 15.9056 26.9756 15.624 26.7705 15.4092C26.5654 15.1943 26.2822 15.0837 25.9209 15.0771H24.5781V17.3086ZM34.9199 15.0771H32.7422V21H31.2773V15.0771H29.1289V13.8906H34.9199V15.0771ZM26.6518 32.061C26.2529 30.9964 24.7471 30.9964 24.3482 32.061L22.7598 36.3005C22.7418 36.3485 22.6972 36.3815 22.646 36.3846L18.5356 36.6356C17.4601 36.7013 16.9829 38.0198 17.7671 38.7586L21.104 41.902C21.1371 41.9332 21.1515 41.9794 21.142 42.0238L20.21 46.3768C19.9796 47.4532 21.1709 48.2671 22.0899 47.6611L25.4284 45.4597C25.4719 45.431 25.5281 45.431 25.5716 45.4597L28.9101 47.6611C29.8291 48.2671 31.0204 47.4532 30.79 46.3768L29.858 42.0238C29.8485 41.9794 29.8629 41.9332 29.896 41.902L33.2329 38.7586C34.0171 38.0198 33.5399 36.7013 32.4644 36.6356L28.354 36.3846C28.3028 36.3815 28.2582 36.3485 28.2402 36.3005L26.6518 32.061ZM25.3783 32.447C25.3919 32.4105 25.4098 32.3934 25.4253 32.3833C25.4436 32.3712 25.4696 32.3626 25.5 32.3626C25.5304 32.3626 25.5564 32.3712 25.5747 32.3833C25.5902 32.3934 25.6081 32.4105 25.6217 32.447L27.2101 36.6864C27.3805 37.1411 27.8023 37.453 28.287 37.4826L32.3974 37.7336C32.5111 37.7405 32.5615 37.8799 32.4786 37.9579L29.1417 41.1013C28.8286 41.3963 28.6923 41.8334 28.7824 42.2541L29.7143 46.607C29.7387 46.7208 29.6128 46.8068 29.5157 46.7428L26.1771 44.5413C25.7663 44.2705 25.2337 44.2705 24.8229 44.5413L21.4843 46.7428C21.3872 46.8068 21.2613 46.7208 21.2857 46.607L22.2176 42.2541C22.3077 41.8334 22.1714 41.3963 21.8583 41.1013L18.5214 37.9579C18.4385 37.8799 18.4889 37.7405 18.6026 37.7336L22.713 37.4826C23.1977 37.453 23.6195 37.1411 23.7899 36.6864L25.3783 32.447Z" fill="url(#paint0_linear)"/>
<defs>
<linearGradient id="paint0_linear" x1="26" y1="0.881195" x2="26" y2="58.0297" gradientUnits="userSpaceOnUse">
<stop stop-color="white"/>
<stop offset="1" stop-color="white" stop-opacity="0.22"/>
</linearGradient>
</defs>
</svg>
