<svg width="43" height="46" viewBox="0 0 43 46" fill="none" xmlns="http://www.w3.org/2000/svg">
<path d="M26.3285 8.50785C27.1233 7.16697 28.7459 6.85892 29.8323 7.50003C30.9241 8.14427 31.4744 9.74712 30.7191 11.1257C30.4908 11.5425 30.435 12.065 30.6873 12.4719C34.3478 18.3754 33.2328 23.7379 32.304 25.1244C28.8214 30.323 27.7295 33.1576 27.9834 34.575C27.9999 34.6673 27.9891 34.7629 27.9434 34.8438C27.8477 35.0132 27.6342 35.0704 27.4665 34.9715L7.28997 23.0656C7.13556 22.9745 7.08187 22.7741 7.17005 22.618C7.22315 22.524 7.31915 22.4661 7.42394 22.4447C8.8003 22.1642 10.5707 19.5522 13.1922 13.9741C13.2229 13.9087 13.2613 13.845 13.3058 13.7884C16.436 9.80614 22.0696 9.07229 25.1724 9.21631C25.6536 9.23865 26.081 8.92533 26.3285 8.50785Z" fill="white" stroke="white"/>
<rect width="29.5157" height="2.48662" rx="1.24331" transform="matrix(0.861237 0.508204 -0.491841 0.870685 3.79132 23.5991)" fill="white"/>
<path d="M18.0561 36.347C17.1105 38.021 14.5818 38.9157 12.71 37.8111C10.8381 36.7065 10.3318 34.021 11.2775 32.347C12.2231 30.673 14.5071 30.2113 16.379 31.3159C18.2509 32.4205 19.0018 34.673 18.0561 36.347Z" fill="white"/>
</svg>
