<svg width="27" height="27" viewBox="0 0 27 27" fill="none" xmlns="http://www.w3.org/2000/svg">
<circle cx="13.5" cy="13.5" r="12.6" stroke="#3883B9" stroke-width="1.8"/>
<path d="M15.7168 9.64374L14.1288 5.78705C13.8976 5.2256 13.1024 5.2256 12.8712 5.78705L11.2832 9.64374C11.1835 9.88588 10.9536 10.0493 10.6921 10.0638L6.68975 10.2861C6.07788 10.3201 5.81965 11.0826 6.28493 11.4814L9.44585 14.1907C9.63882 14.3561 9.72345 14.6154 9.66523 14.8628L8.76874 18.6729C8.63103 19.2581 9.26494 19.721 9.78052 19.4117L13.1501 17.3899C13.3655 17.2607 13.6345 17.2607 13.8499 17.3899L17.2195 19.4117C17.7351 19.721 18.369 19.2581 18.2313 18.6729L17.3348 14.8628C17.2766 14.6154 17.3612 14.3561 17.5542 14.1907L20.7151 11.4814C21.1803 11.0826 20.9221 10.3201 20.3102 10.2861L16.3079 10.0638C16.0464 10.0493 15.8165 9.88588 15.7168 9.64374Z" stroke="#3883B9" stroke-width="1.8"/>
</svg>
