<svg width="8" height="23" viewBox="0 0 8 23" fill="none" xmlns="http://www.w3.org/2000/svg">
<rect x="3.19067" y="8.51447" width="1.5" height="9" rx="0.75" fill="#959595"/>
<path d="M6.31908 5.05667L1.68028 5.05667L4.03212 1.34577L6.31908 5.05667ZM4.11811 1.21009C4.11808 1.21015 4.11804 1.2102 4.11801 1.21025L4.11811 1.21009ZM3.94861 1.21025C3.94858 1.2102 3.94854 1.21015 3.94851 1.21009L3.94861 1.21025Z" fill="#959595" stroke="#959595"/>
<mask id="path-3-inside-1_1787:1739" fill="white">
<rect width="5.86688" height="12.9071" rx="0.2" transform="matrix(1 3.52648e-09 -0.00874201 0.999962 1.05322 6.50006)"/>
</mask>
<rect width="5.86688" height="12.9071" rx="0.2" transform="matrix(1 3.52648e-09 -0.00874201 0.999962 1.05322 6.50006)" stroke="#959595" stroke-width="2" mask="url(#path-3-inside-1_1787:1739)"/>
<mask id="path-4-inside-2_1787:1739" fill="white">
<rect width="5.86688" height="2.34675" rx="0.2" transform="matrix(1 3.52648e-09 -0.00874201 0.999962 0.930176 20.5797)"/>
</mask>
<rect width="5.86688" height="2.34675" rx="0.2" transform="matrix(1 3.52648e-09 -0.00874201 0.999962 0.930176 20.5797)" fill="#959595" stroke="#959595" stroke-width="2" mask="url(#path-4-inside-2_1787:1739)"/>
</svg>
