<svg width="27" height="27" viewBox="0 0 27 27" fill="none" xmlns="http://www.w3.org/2000/svg">
<circle cx="13.5" cy="13.5" r="12.9" stroke="white" stroke-width="1.2"/>
<path d="M15.7168 9.64349L14.1288 5.78681C13.8976 5.22535 13.1024 5.22535 12.8712 5.78681L11.2832 9.64349C11.1835 9.88564 10.9536 10.049 10.6921 10.0635L6.68975 10.2859C6.07788 10.3199 5.81965 11.0823 6.28493 11.4811L9.44585 14.1905C9.63882 14.3559 9.72345 14.6151 9.66523 14.8625L8.76874 18.6726C8.63103 19.2579 9.26494 19.7208 9.78052 19.4115L13.1501 17.3897C13.3655 17.2605 13.6345 17.2605 13.8499 17.3897L17.2195 19.4115C17.7351 19.7208 18.369 19.2579 18.2313 18.6726L17.3348 14.8625C17.2766 14.6151 17.3612 14.3559 17.5542 14.1905L20.7151 11.4811C21.1803 11.0823 20.9221 10.3199 20.3102 10.2859L16.3079 10.0635C16.0464 10.049 15.8165 9.88564 15.7168 9.64349Z" stroke="white" stroke-width="1.2"/>
</svg>
